<?xml version="1.0" standalone="no"?>
<!DOCTYPE svg PUBLIC "-//W3C//DTD SVG 20010904//EN"
 "http://www.w3.org/TR/2001/REC-SVG-20010904/DTD/svg10.dtd">
<svg version="1.0" xmlns="http://www.w3.org/2000/svg"
 width="194.000000pt" height="194.000000pt" viewBox="0 0 194.000000 194.000000"
 preserveAspectRatio="xMidYMid meet">
<metadata>
Created by potrace 1.11, written by Peter Selinger 2001-2013
</metadata>
<g transform="translate(0.000000,194.000000) scale(0.100000,-0.100000)"
fill="#000000" stroke="none">
<path d="M808 1730 c-46 -3 -75 -11 -95 -26 -55 -41 -57 -55 -57 -344 0 -260
0 -267 23 -303 41 -67 53 -69 347 -71 144 0 280 3 302 7 39 8 101 55 103 80 1
6 3 23 5 37 2 14 4 135 4 269 1 362 10 353 -338 355 -125 0 -257 -1 -294 -4z
m512 -110 c13 -13 20 -33 20 -60 l0 -40 -292 2 -293 3 2 40 c5 74 10 75 294
75 236 0 250 -1 269 -20z m20 -254 l0 -62 -287 2 c-159 1 -290 2 -293 3 -4 1
-4 83 -1 112 1 3 132 6 291 6 l290 0 0 -61z m-11 -155 c21 -1 9 -100 -15 -118
-14 -10 -75 -13 -266 -13 -235 0 -249 1 -268 20 -11 11 -20 26 -21 33 0 6 -2
25 -3 41 -1 19 4 30 16 35 12 4 448 6 557 2z"/>
<path d="M380 1610 c-12 -7 -14 -60 -15 -327 -1 -343 4 -395 37 -430 35 -38
82 -46 257 -47 l163 -2 22 -26 c16 -21 20 -38 18 -73 l-4 -45 -298 0 c-258 0
-301 -2 -314 -16 -20 -20 -20 -38 0 -58 12 -13 38 -16 121 -16 l106 0 -7 -52
c-15 -115 -50 -178 -132 -232 -29 -20 -57 -36 -61 -36 -18 -1 -53 -40 -53 -58
0 -27 26 -52 54 -52 26 0 128 59 169 98 77 73 121 182 126 310 1 23 1 23 147
20 l145 -3 2 -203 c2 -168 5 -204 17 -212 22 -14 47 -12 65 6 14 15 16 52 13
338 -3 350 -3 346 -62 382 -26 16 -59 20 -213 24 -152 4 -185 8 -199 22 -15
14 -17 53 -18 347 -1 283 -3 333 -16 341 -19 12 -51 12 -70 0z"/>
<path d="M1649 1593 c-11 -13 -14 -81 -15 -335 -1 -302 -2 -321 -21 -339 -17
-18 -36 -20 -205 -22 -204 -2 -213 -5 -262 -70 -19 -26 -20 -43 -21 -338 -1
-334 1 -349 50 -349 51 0 55 15 55 231 l0 199 189 0 c253 0 235 16 236 -211 2
-187 9 -219 49 -219 51 0 56 19 53 232 -2 181 -4 199 -23 225 -42 57 -68 63
-296 63 l-208 0 0 53 c1 90 2 90 210 93 204 2 239 12 275 74 19 33 20 53 20
370 1 289 -1 337 -15 347 -22 18 -55 16 -71 -4z"/>
</g>
</svg>
